<svg version="1.1" 
    xmlns="http://www.w3.org/2000/svg" 
    xmlns:xlink="http://www.w3.org/1999/xlink" viewBox="0 0 193.1 52.5" xml:space="preserve">
    <path fill="#fff" d="M137.8,31.9h6.6l-9.7,9.7l7.2,10.8H135l-5.5-8.9h-0.1l-1.4,8.9h-5.3l3.2-20.5h5.3l-1.3,8.5h0.1L137.8,31.9z M102,31.9h5.3l7.8,12.5h0.1l2-12.5h5.3l-3.2,20.5h-5.3l-7.8-12.6h-0.1l-2,12.6h-5.3L102,31.9z M89.9,44.8h-4.4l3.2-6.5h0.1 L89.9,44.8z M90.7,48.8l0.8,3.6h5.7l-4.5-20.5h-5.8L75.7,52.4h5.7l2-3.6H90.7z M65.8,43.9h0.5c1.7,0,4.4-0.2,4,2.2 c-0.4,2.3-3,2.2-4.6,2.2h-0.7L65.8,43.9z M67.4,52.4c3.8,0,7.6-1.4,8.3-5.7c0.5-2.9-0.5-4.8-3.4-5.2l0-0.1c1.8-0.8,2.6-2.3,2.9-4.2 c0.6-3.9-1.6-5.3-5.2-5.3h-7.6l-3.2,20.5H67.4z M67.1,36h0.4c1.4,0,3.1,0.1,2.8,2c-0.3,1.7-1.8,2-3.2,2h-0.6L67.1,36z M185.3,10.7 L185.3,10.7c1.2-1.7,2.6-2.3,4.5-2.3c3.7,0,5.2,2.4,5.2,5.8v8.6h-4.9V16c0-1.3,0.2-3.7-2.2-3.7c-2,0-2.6,1.5-2.6,3.2v7.2h-4.9V8.9 h4.9V10.7z M167.8,13.8c0.3-1.4,1.5-2.2,2.9-2.2c1.3,0,2.6,0.9,2.8,2.2H167.8z M178.1,16.2c0-4.8-2.8-7.7-7.6-7.7 c-4.5,0-7.7,2.8-7.7,7.4c0,4.8,3.4,7.4,8.1,7.4c3.2,0,6.3-1.5,7.1-4.8h-4.8c-0.5,0.9-1.3,1.3-2.4,1.3c-2,0-3.1-1.1-3.1-3.1h10.4 V16.2z M159.1,12.5c-0.8-0.4-1.8-0.7-2.7-0.7c-0.6,0-1.5,0.2-1.5,1c0,0.9,1.5,1.1,2.2,1.2c2.3,0.5,4,1.5,4,4.1 c0,3.7-3.3,5.2-6.6,5.2c-2,0-3.9-0.6-5.6-1.6l1.8-3.4c1,0.7,2.7,1.4,3.9,1.4c0.6,0,1.5-0.3,1.5-1.1c0-1.1-1.5-1.1-3.1-1.5 c-1.5-0.4-3.1-1.2-3.1-3.7c0-3.4,3.1-4.9,6.1-4.9c1.6,0,3.1,0.2,4.6,0.9L159.1,12.5z M141.7,8.9h4.9v13.9h-4.9V8.9z M146.9,3.5 c0,1.5-1.2,2.8-2.8,2.8c-1.5,0-2.8-1.2-2.8-2.8s1.2-2.8,2.8-2.8C145.7,0.8,146.9,2,146.9,3.5 M129.1,13.8c0.3-1.4,1.5-2.2,2.9-2.2 c1.3,0,2.6,0.9,2.8,2.2H129.1z M139.4,16.2c0-4.8-2.8-7.7-7.6-7.7c-4.5,0-7.7,2.8-7.7,7.4c0,4.8,3.4,7.4,8.1,7.4 c3.2,0,6.3-1.5,7.1-4.8h-4.8c-0.5,0.9-1.3,1.3-2.4,1.3c-2,0-3.1-1.1-3.1-3.1h10.4V16.2z M120,22.8h-4.9V13h-1.7V8.9h1.7V7.1 c0-1.9,0.1-3.3,1.4-4.9c1.2-1.4,3-2.2,4.9-2.2c0.8,0,1.4,0.1,2.1,0.5v4.3c-0.6-0.2-1.1-0.5-1.7-0.5c-1.3,0-1.7,0.8-1.7,2.3v2.3h3.4 V13H120V22.8z M109.5,22.8h-4.9V13h-1.7V8.9h1.7V7.1c0-1.9,0.1-3.3,1.4-4.9c1.2-1.4,3-2.2,4.9-2.2c0.8,0,1.4,0.1,2.1,0.5v4.3 c-0.6-0.2-1.1-0.5-1.7-0.5c-1.3,0-1.7,0.8-1.7,2.3v2.3h3.4V13h-3.4V22.8z M95.9,8.9h4.9v13.9h-4.9V8.9z M101.1,3.5 c0,1.5-1.2,2.8-2.8,2.8c-1.5,0-2.8-1.2-2.8-2.8s1.2-2.8,2.8-2.8C99.9,0.8,101.1,2,101.1,3.5 M84.6,12.7c2,0,3.2,1.4,3.2,3.2 c0,1.8-1.2,3.1-3.2,3.1c-2,0-3.2-1.4-3.2-3.1C81.4,14.1,82.6,12.7,84.6,12.7 M92.6,8.9h-4.9v1.4c-1-1.2-2.7-1.8-4.3-1.8 c-4.1,0-7,3.4-7,7.4c0,4,2.9,7.4,7,7.4c1.6,0,3.3-0.6,4.2-2h0.1v1.5h4.9V8.9z M64.3,6.4h0.5c1.7,0,3.7,0.3,3.7,2.6 c0,2.2-2,2.6-3.7,2.6h-0.5V6.4z M69.6,14.4c2.9-0.5,4.5-3,4.5-5.8c0-4.4-3.1-6.3-7.1-6.3h-8v20.5h5.3v-7.9h0.1l5,7.9H76L69.6,14.4z" data-darkreader-inline-fill="" style="--darkreader-inline-fill:#000000;"></path>
    <path fill="#fff" d="M25.5,33.4l15.1,15l5.9-5.9L31.4,27.4l2.9-2.9l0-5.9l2.1-2.1l0,4.9l2,2l7.4-7.4l2,2c0-1.3-0.4-5.6-3.9-9 c-3.9-3.8-7.8-1.6-9.2-0.2l-7.1,7.1l1.8,1.8l-3.9,3.9l-3.9-3.9l1.8-1.8l-7.1-7.1C14.9,7.4,11,5.2,7.1,9c-3.5,3.4-3.8,7.8-3.8,9 l1.9-2l7.3,7.4l2-2l0-4.8l2.1,2.1l0,5.8l2.9,2.9L4.7,42.3l5.9,5.9L25.5,33.4z M1.9,51l47.3,0V3.7l-47.3,0L1.9,51z M0.5,2.3h50l0,50 l-50,0L0.5,2.3z" data-darkreader-inline-fill="" style="--darkreader-inline-fill:#000000;"></path>
</svg>