<svg xmlns="http://www.w3.org/2000/svg" style="display: none;">
    <symbol id="shopping-cart" viewBox="0 0 510 510">
        <title>shopping-cart</title>
        <path d="M153,408c-28.05,0-51,22.95-51,51s22.95,51,51,51s51-22.95,51-51S181.05,408,153,408z M0,0v51h51l91.8,193.8L107.1,306 c-2.55,7.65-5.1,17.85-5.1,25.5c0,28.05,22.95,51,51,51h306v-51H163.2c-2.55,0-5.1-2.55-5.1-5.1v-2.551l22.95-43.35h188.7 c20.4,0,35.7-10.2,43.35-25.5L504.9,89.25c5.1-5.1,5.1-7.65,5.1-12.75c0-15.3-10.2-25.5-25.5-25.5H107.1L84.15,0H0z M408,408 c-28.05,0-51,22.95-51,51s22.95,51,51,51s51-22.95,51-51S436.05,408,408,408z"/>
    </symbol>
    <symbol id="bookmark" viewBox="0 0 431.972 431.972">
        <title>bookmark</title>
        <path d="M393.146,14.279c-3.713-5.333-8.713-9.233-14.989-11.707c-3.997-1.711-8.186-2.568-12.565-2.568V0H66.378 c-4.377,0-8.562,0.857-12.56,2.568c-6.28,2.472-11.278,6.377-14.989,11.707c-3.71,5.33-5.568,11.228-5.568,17.701v368.019 c0,6.475,1.858,12.371,5.568,17.706c3.711,5.329,8.709,9.233,14.989,11.704c3.994,1.711,8.183,2.566,12.56,2.566 c8.949,0,16.844-3.142,23.698-9.418l125.91-121.062l125.91,121.065c6.663,6.081,14.562,9.127,23.695,9.127 c4.76,0,8.948-0.756,12.565-2.279c6.276-2.471,11.276-6.375,14.989-11.711c3.71-5.328,5.564-11.225,5.564-17.699V31.98 C398.71,25.507,396.852,19.609,393.146,14.279z"/>
    </symbol>
    <symbol id="bookmark-clear" viewBox="0 0 431.972 431.972">
        <title>bookmark-clear</title>
        <path d="M393.146,14.279c-3.713-5.333-8.713-9.233-14.989-11.707c-3.997-1.711-8.186-2.568-12.565-2.568V0H66.378 c-4.377,0-8.562,0.857-12.56,2.568c-6.28,2.472-11.278,6.377-14.989,11.707c-3.71,5.33-5.568,11.228-5.568,17.701v368.019 c0,6.475,1.858,12.371,5.568,17.706c3.711,5.329,8.709,9.233,14.989,11.704c3.994,1.711,8.183,2.566,12.56,2.566 c8.949,0,16.844-3.142,23.698-9.418l125.91-121.062l125.91,121.065c6.663,6.081,14.562,9.127,23.695,9.127 c4.76,0,8.948-0.756,12.565-2.279c6.276-2.471,11.276-6.375,14.989-11.711c3.71-5.328,5.564-11.225,5.564-17.699V31.98 C398.71,25.507,396.852,19.609,393.146,14.279z M362.166,391.139L241.397,275.224l-25.411-24.264l-25.409,24.264L69.809,391.139 V36.549h292.357V391.139L362.166,391.139z"/>
    </symbol>
    <symbol id="diamond" viewBox="0 0 512 512">
        <title>diamond</title>
        <polygon style="fill:#FFE182;" points="360.129,172.138 256,472.276 512,172.138 "/>
        <g>
            <polygon style="fill:#FFCD73;" points="105.931,39.724 0,172.138 151.871,172.138 "/>
            <polygon style="fill:#FFCD73;" points="360.129,172.138 512,172.138 406.069,39.724 "/>
            <polygon style="fill:#FFCD73;" points="360.129,172.138 256,39.724 151.871,172.138 "/>
        </g>
        <polygon style="fill:#FFAA64;" points="256,39.724 105.931,39.724 151.871,172.138 "/>
        <polygon style="fill:#FFE182;" points="406.069,39.724 256,39.724 360.129,172.138 "/>
        <polygon style="fill:#FFAA64;" points="151.871,172.138 256,472.276 360.129,172.138 "/>
        <polygon style="fill:#FF8C5A;" points="0,172.138 256,472.276 151.871,172.138 "/>
    </symbol>
    <symbol id="next" viewBox="0 0 31.49 31.49">
        <title>next</title>
        <path d="M21.205,5.007c-0.429-0.444-1.143-0.444-1.587,0c-0.429,0.429-0.429,1.143,0,1.571l8.047,8.047H1.111 C0.492,14.626,0,15.118,0,15.737c0,0.619,0.492,1.127,1.111,1.127h26.554l-8.047,8.032c-0.429,0.444-0.429,1.159,0,1.587 c0.444,0.444,1.159,0.444,1.587,0l9.952-9.952c0.444-0.429,0.444-1.143,0-1.571L21.205,5.007z"/>
    </symbol>
    <symbol id="dollar" viewBox="0 0 31.371 31.371">
        <title>dollar</title>
        <path d="M24.26,20.34c0,3.42-2.423,6.342-6.845,7.111v3.92h-3.768v-3.648c-2.578-0.117-5.076-0.811-6.537-1.654l1.154-4.5 c1.615,0.886,3.883,1.693,6.383,1.693c2.191,0,3.691-0.848,3.691-2.385c0-1.461-1.23-2.389-4.077-3.348 c-4.112-1.385-6.921-3.306-6.921-7.033c0-3.386,2.385-6.035,6.499-6.845V0h3.767v3.383c2.576,0.115,4.309,0.652,5.576,1.268 l-1.115,4.348C21.07,8.575,19.3,7.688,16.531,7.688c-2.5,0-3.307,1.076-3.307,2.154c0,1.268,1.346,2.074,4.613,3.307 C22.416,14.762,24.26,16.877,24.26,20.34z"/>
    </symbol>
    <symbol id="dollar-1" viewBox="0 0 279.004 259.004">
        <title>dollar-1</title>
        <path d="M262.122,232.344c0.197-26.82-10.405-48.031-31.552-63.01c-16.333-11.533-36.154-17.549-55.325-23.33 c-39.936-12.107-51.521-18.484-51.521-37.582c0-21.273,27.646-28.842,51.313-28.842c17.236,0,37.066,5.359,49.381,13.301 l24.415-37.812c-16.095-10.434-38.123-17.551-59.875-19.76V0H143.92v37.785c-40.035,8.807-65.255,34.973-65.255,70.637 c0,24.977,10.379,44.785,30.79,58.756c15.524,10.666,34.457,16.393,52.746,21.938c39.172,11.84,55.079,19.055,54.898,42.949 l-0.001,0.176c0,20.055-26.577,27.184-49.346,27.184c-21.508,0-44.897-9.426-58.155-23.441l-32.719,30.949 c16.79,17.758,41.184,30.313,67.041,35.234v36.838h45.039v-36.045C233.445,296.592,262.078,269.809,262.122,232.344z" stroke-width="3"/>
    </symbol>
    <symbol id="dollar-2" viewBox="0 0 67.43 77.43">
        <title>dollar-2</title>
        <path d="M58.878,42.166c-2.838-2.262-7.025-4.459-12.8-6.717c-6.291-2.446-8.85-3.95-9.891-4.783 c-1.229-0.982-1.801-2.269-1.801-4.047c0-1.271,0-5.14,10.141-5.14c5.443,0,10.383,0.88,14.683,2.615 c0.51,0.206,1.084,0.176,1.569-0.083c0.484-0.258,0.832-0.717,0.947-1.255l1.938-9.064c0.204-0.957-0.367-1.91-1.31-2.179 c-3.549-1.014-8.137-1.629-13.66-1.833V2.01c0.043-0.518-0.135-1.029-0.485-1.411C47.855,0.218,47.359,0,46.843,0h-6.377 c-0.52,0-1.016,0.218-1.369,0.6c-0.353,0.382-0.529,0.896-0.486,1.413l0.053,8.089c-5.588,0.853-9.9,2.938-12.836,6.208 c-3.219,3.588-4.852,7.792-4.852,12.496c0,5.448,2.338,10.081,6.961,13.777c2.707,2.131,6.928,4.325,12.908,6.708 c4.557,1.799,7.702,3.369,9.346,4.668c1.709,1.35,2.541,2.917,2.541,4.79c0,3.493-4.063,5.265-12.078,5.265 c-5.871,0-11.471-1.01-16.648-3.001c-0.508-0.196-1.078-0.159-1.557,0.103c-0.479,0.261-0.82,0.718-0.932,1.25l-1.939,9.189 c-0.209,0.993,0.416,1.971,1.404,2.198c5.516,1.274,11.416,1.976,17.566,2.094l0.033,7.611c-0.029,0.512,0.078,1.014,0.43,1.387 c0.352,0.374,0.842,0.585,1.355,0.585h6.478c0.008,0,0.016,0,0.022,0c1.029,0,1.861-0.833,1.861-1.861 c0-0.143-0.016-0.283-0.047-0.416l0.024-7.928c11.255-1.982,17.188-8.667,17.188-19.412C65.894,50.49,63.533,45.9,58.878,42.166z"/>
    </symbol>
</svg>