<svg xmlns="http://www.w3.org/2000/svg" style="display: none;">
    <symbol id="shopping-cart" viewBox="0 0 510 510">
        <title>shopping-cart</title>
        <path d="M153,408c-28.05,0-51,22.95-51,51s22.95,51,51,51s51-22.95,51-51S181.05,408,153,408z M0,0v51h51l91.8,193.8L107.1,306 c-2.55,7.65-5.1,17.85-5.1,25.5c0,28.05,22.95,51,51,51h306v-51H163.2c-2.55,0-5.1-2.55-5.1-5.1v-2.551l22.95-43.35h188.7 c20.4,0,35.7-10.2,43.35-25.5L504.9,89.25c5.1-5.1,5.1-7.65,5.1-12.75c0-15.3-10.2-25.5-25.5-25.5H107.1L84.15,0H0z M408,408 c-28.05,0-51,22.95-51,51s22.95,51,51,51s51-22.95,51-51S436.05,408,408,408z"/>
    </symbol>
    <symbol id="bookmark" viewBox="0 0 431.972 431.972">
        <title>bookmark</title>
        <path d="M393.146,14.279c-3.713-5.333-8.713-9.233-14.989-11.707c-3.997-1.711-8.186-2.568-12.565-2.568V0H66.378 c-4.377,0-8.562,0.857-12.56,2.568c-6.28,2.472-11.278,6.377-14.989,11.707c-3.71,5.33-5.568,11.228-5.568,17.701v368.019 c0,6.475,1.858,12.371,5.568,17.706c3.711,5.329,8.709,9.233,14.989,11.704c3.994,1.711,8.183,2.566,12.56,2.566 c8.949,0,16.844-3.142,23.698-9.418l125.91-121.062l125.91,121.065c6.663,6.081,14.562,9.127,23.695,9.127 c4.76,0,8.948-0.756,12.565-2.279c6.276-2.471,11.276-6.375,14.989-11.711c3.71-5.328,5.564-11.225,5.564-17.699V31.98 C398.71,25.507,396.852,19.609,393.146,14.279z"/>
    </symbol>
    <symbol id="bookmark-clear" viewBox="0 0 431.972 431.972">
        <title>bookmark-clear</title>
        <path d="M393.146,14.279c-3.713-5.333-8.713-9.233-14.989-11.707c-3.997-1.711-8.186-2.568-12.565-2.568V0H66.378 c-4.377,0-8.562,0.857-12.56,2.568c-6.28,2.472-11.278,6.377-14.989,11.707c-3.71,5.33-5.568,11.228-5.568,17.701v368.019 c0,6.475,1.858,12.371,5.568,17.706c3.711,5.329,8.709,9.233,14.989,11.704c3.994,1.711,8.183,2.566,12.56,2.566 c8.949,0,16.844-3.142,23.698-9.418l125.91-121.062l125.91,121.065c6.663,6.081,14.562,9.127,23.695,9.127 c4.76,0,8.948-0.756,12.565-2.279c6.276-2.471,11.276-6.375,14.989-11.711c3.71-5.328,5.564-11.225,5.564-17.699V31.98 C398.71,25.507,396.852,19.609,393.146,14.279z M362.166,391.139L241.397,275.224l-25.411-24.264l-25.409,24.264L69.809,391.139 V36.549h292.357V391.139L362.166,391.139z"/>
    </symbol>
    <symbol id="diamond" viewBox="0 0 512 512">
        <title>diamond</title>
        <polygon style="fill:#FFE182;" points="360.129,172.138 256,472.276 512,172.138 "/>
        <g>
            <polygon style="fill:#FFCD73;" points="105.931,39.724 0,172.138 151.871,172.138 "/>
            <polygon style="fill:#FFCD73;" points="360.129,172.138 512,172.138 406.069,39.724 "/>
            <polygon style="fill:#FFCD73;" points="360.129,172.138 256,39.724 151.871,172.138 "/>
        </g>
        <polygon style="fill:#FFAA64;" points="256,39.724 105.931,39.724 151.871,172.138 "/>
        <polygon style="fill:#FFE182;" points="406.069,39.724 256,39.724 360.129,172.138 "/>
        <polygon style="fill:#FFAA64;" points="151.871,172.138 256,472.276 360.129,172.138 "/>
        <polygon style="fill:#FF8C5A;" points="0,172.138 256,472.276 151.871,172.138 "/>
    </symbol>
    <symbol id="next" viewBox="0 0 31.49 31.49">
        <title>next</title>
        <path style="fill:#1E201D;" d="M21.205,5.007c-0.429-0.444-1.143-0.444-1.587,0c-0.429,0.429-0.429,1.143,0,1.571l8.047,8.047H1.111 C0.492,14.626,0,15.118,0,15.737c0,0.619,0.492,1.127,1.111,1.127h26.554l-8.047,8.032c-0.429,0.444-0.429,1.159,0,1.587 c0.444,0.444,1.159,0.444,1.587,0l9.952-9.952c0.444-0.429,0.444-1.143,0-1.571L21.205,5.007z"/>
    </symbol>
</svg>